<svg width="420" height="420" viewBox="0 0 420 420" fill="none" xmlns="http://www.w3.org/2000/svg">
<rect width="420" height="420" rx="100" fill="url(#paint0_linear)"/>
<path d="M140 310V110H220C235 110 247.5 112.5 257.5 117.5C267.5 122.5 275 129.5 280 138.5C285 147.5 287.5 158 287.5 170C287.5 182 285 192.5 280 201.5C275 210.5 267.5 217.5 257.5 222.5C247.5 227.5 235 230 220 230H180V310H140ZM180 195H215C225 195 232.5 192.5 237.5 187.5C242.5 182.5 245 175.5 245 166.5C245 157.5 242.5 150.5 237.5 145.5C232.5 140.5 225 138 215 138H180V195Z" fill="white"/>
<defs>
<linearGradient id="paint0_linear" x1="0" y1="0" x2="420" y2="420" gradientUnits="userSpaceOnUse">
<stop stop-color="#6366F1"/>
<stop offset="1" stop-color="#8B5CF6"/>
</linearGradient>
</defs>
</svg>
